<mxfile host="app.diagrams.net" modified="2023-06-03T05:04:49.332Z" agent="Mozilla/5.0 (X11; Linux x86_64) AppleWebKit/537.36 (KHTML, like Gecko) Chrome/110.0.0.0 Safari/537.36 Edg/110.0.1587.41" version="21.3.7" etag="BM2p9uwNqzJtlm8xGF0s" type="github">
  <diagram name="第 1 页" id="kXesfWX5XI_959Thf6u9">
    <mxGraphModel>
      <root>
        <mxCell id="0" />
        <mxCell id="1" parent="0" />
      </root>
    </mxGraphModel>
  </diagram>
</mxfile>
